<?xml version="1.0" encoding="UTF-8" standalone="no"?>
<!-- Generator: Adobe Illustrator 19.0.0, SVG Export Plug-In . SVG Version: 6.00 Build 0)  -->

<svg
   xmlns:dc="http://purl.org/dc/elements/1.1/"
   xmlns:cc="http://creativecommons.org/ns#"
   xmlns:rdf="http://www.w3.org/1999/02/22-rdf-syntax-ns#"
   xmlns:svg="http://www.w3.org/2000/svg"
   xmlns="http://www.w3.org/2000/svg"
   xmlns:sodipodi="http://sodipodi.sourceforge.net/DTD/sodipodi-0.dtd"
   xmlns:inkscape="http://www.inkscape.org/namespaces/inkscape"
   version="1.1"
   id="Layer_1"
   x="0px"
   y="0px"
   viewBox="0 0 512 512"
   style="enable-background:new 0 0 512 512;"
   xml:space="preserve"
   sodipodi:docname="close.svg"
   inkscape:version="0.92.4 (5da689c313, 2019-01-14)"><metadata
   id="metadata55"><rdf:RDF><cc:Work
       rdf:about=""><dc:format>image/svg+xml</dc:format><dc:type
         rdf:resource="http://purl.org/dc/dcmitype/StillImage" /><dc:title></dc:title></cc:Work></rdf:RDF></metadata><defs
   id="defs53" /><sodipodi:namedview
   pagecolor="#ffffff"
   bordercolor="#666666"
   borderopacity="1"
   objecttolerance="10"
   gridtolerance="10"
   guidetolerance="10"
   inkscape:pageopacity="0"
   inkscape:pageshadow="2"
   inkscape:window-width="1920"
   inkscape:window-height="1017"
   id="namedview51"
   showgrid="false"
   inkscape:zoom="0.4609375"
   inkscape:cx="218.0339"
   inkscape:cy="256"
   inkscape:window-x="-8"
   inkscape:window-y="-8"
   inkscape:window-maximized="1"
   inkscape:current-layer="Layer_1" />
<g
   id="g6">
	<g
   id="g4">
		<path
   d="M 0,25.6 V 128 H 499.2 V 25.6 Z M 324.12203,96 c -10.604,0 -19.2,-8.596 -19.2,-19.2 0,-10.604 8.596,-19.2 19.2,-19.2 10.604,0 19.2,8.596 19.2,19.2 0,10.604 -8.596,19.2 -19.2,19.2 z m 64,0 c -10.604,0 -19.2,-8.596 -19.2,-19.2 0,-10.604 8.596,-19.2 19.2,-19.2 10.604,0 19.2,8.596 19.2,19.2 0,10.604 -8.596,19.2 -19.2,19.2 z m 64,0 c -10.604,0 -19.2,-8.596 -19.2,-19.2 0,-10.604 8.596,-19.2 19.2,-19.2 10.604,0 19.2,8.596 19.2,19.2 0,10.604 -8.596,19.2 -19.2,19.2 z"
   id="path2"
   inkscape:connector-curvature="0"
   sodipodi:nodetypes="cccccsssssssssssssss" />
	</g>
</g>
<g
   id="g12">
	<g
   id="g10">
		<path
   d="M0,166.4v256h308.721c-0.997-6.257-1.521-12.667-1.521-19.2c0-23.468,6.689-45.398,18.25-64H275.2v-38.4h88.081    c18.921-12.148,41.412-19.2,65.519-19.2c26.216,0,50.519,8.341,70.4,22.504V166.4H0z M224,339.2H96v-38.4h128V339.2z M224,262.4    H96V224h128V262.4z M403.2,262.4h-128V224h128V262.4z"
   id="path8" />
	</g>
</g>
<g
   id="g18">
	<g
   id="g16">
		<path
   d="M428.8,320c-45.876,0-83.2,37.323-83.2,83.2c0,45.876,37.324,83.2,83.2,83.2s83.2-37.323,83.2-83.2    C512,357.323,474.676,320,428.8,320z M474.054,421.303l-27.154,27.153L428.8,430.353l-18.102,18.102l-27.154-27.153l18.103-18.102    l-18.102-18.103l27.154-27.153l18.101,18.103l18.102-18.103l27.154,27.153L455.953,403.2L474.054,421.303z"
   id="path14" />
	</g>
</g>
<g
   id="g20">
</g>
<g
   id="g22">
</g>
<g
   id="g24">
</g>
<g
   id="g26">
</g>
<g
   id="g28">
</g>
<g
   id="g30">
</g>
<g
   id="g32">
</g>
<g
   id="g34">
</g>
<g
   id="g36">
</g>
<g
   id="g38">
</g>
<g
   id="g40">
</g>
<g
   id="g42">
</g>
<g
   id="g44">
</g>
<g
   id="g46">
</g>
<g
   id="g48">
</g>
</svg>