<?xml version="1.0" encoding="iso-8859-1"?>
<!-- Generator: Adobe Illustrator 18.0.0, SVG Export Plug-In . SVG Version: 6.00 Build 0)  -->
<!DOCTYPE svg PUBLIC "-//W3C//DTD SVG 1.1//EN" "http://www.w3.org/Graphics/SVG/1.1/DTD/svg11.dtd">
<svg version="1.1" id="Capa_1" xmlns="http://www.w3.org/2000/svg" xmlns:xlink="http://www.w3.org/1999/xlink" x="0px" y="0px"
	 viewBox="0 0 255.036 255.036" style="enable-background:new 0 0 255.036 255.036;" xml:space="preserve">
<path d="M237.117,152.137l-34.441-13.32v-11.513c20.07-16.766,31.109-39.068,31.109-62.968c0-8.284-6.716-15-15-15s-15,6.716-15,15
	c0,7.719-1.949,15.088-5.454,21.85c-3.899-7.652-10.185-13.879-17.883-17.699c-0.682-9.476-5.284-21.241-12.532-31.624
	c3.339-7.355,5.343-15.617,5.343-24.362c0-6.903-5.597-12.5-12.5-12.5c-6.903,0-12.5,5.597-12.5,12.5c0,1.72-0.139,3.394-0.39,5.017
	c-6.267-3.747-13.14-6.023-20.351-6.023c-7.212,0-14.085,2.276-20.353,6.023c-0.251-1.623-0.39-3.298-0.39-5.018
	c0-6.903-5.597-12.5-12.5-12.5c-6.903,0-12.5,5.597-12.5,12.5c0,8.745,2.004,17.007,5.343,24.363
	c-7.247,10.383-11.85,22.148-12.532,31.624c-7.698,3.82-13.984,10.047-17.883,17.699c-3.505-6.762-5.454-14.132-5.454-21.851
	c0-8.284-6.716-15-15-15c-8.284,0-15,6.716-15,15c0,23.9,11.038,46.202,31.109,62.968v11.514l-34.441,13.32
	c-7.727,2.988-11.567,11.675-8.579,19.401c2.301,5.948,7.977,9.593,13.993,9.593c1.8,0,3.63-0.326,5.408-1.014l23.933-9.256
	c0.756,8.531,2.939,16.646,6.306,24.118c-6.747,13.264-10.614,28.656-10.614,45.057c0,8.284,6.716,15,15,15s15-6.716,15-15
	c0-6.018,0.734-11.828,2.084-17.314c12.883,10.365,29.246,16.581,47.068,16.581s34.184-6.216,47.067-16.581
	c1.35,5.486,2.084,11.296,2.084,17.314c0,8.284,6.716,15,15,15c8.284,0,15-6.716,15-15c0-16.402-3.867-31.793-10.614-45.057
	c3.367-7.472,5.55-15.587,6.306-24.118l23.933,9.256c1.779,0.688,3.608,1.014,5.408,1.014c6.016,0,11.692-3.645,13.993-9.593
	C248.685,163.811,244.844,155.125,237.117,152.137z"/>
<g>
</g>
<g>
</g>
<g>
</g>
<g>
</g>
<g>
</g>
<g>
</g>
<g>
</g>
<g>
</g>
<g>
</g>
<g>
</g>
<g>
</g>
<g>
</g>
<g>
</g>
<g>
</g>
<g>
</g>
</svg>
