<?xml version="1.0" encoding="UTF-8" standalone="no"?>
<!-- Generator: Adobe Illustrator 16.0.0, SVG Export Plug-In . SVG Version: 6.00 Build 0)  -->

<svg
   version="1.1"
   id="Capa_1"
   x="0px"
   y="0px"
   width="467.60001"
   height="393.23306"
   viewBox="0 0 467.6 393.23306"
   xml:space="preserve"
   sodipodi:docname="buy2.svg"
   inkscape:version="1.1.1 (3bf5ae0d25, 2021-09-20)"
   xmlns:inkscape="http://www.inkscape.org/namespaces/inkscape"
   xmlns:sodipodi="http://sodipodi.sourceforge.net/DTD/sodipodi-0.dtd"
   xmlns="http://www.w3.org/2000/svg"
   xmlns:svg="http://www.w3.org/2000/svg"><defs
   id="defs4407" /><sodipodi:namedview
   id="namedview4405"
   pagecolor="#ffffff"
   bordercolor="#666666"
   borderopacity="1.0"
   inkscape:pageshadow="2"
   inkscape:pageopacity="0.0"
   inkscape:pagecheckerboard="0"
   showgrid="false"
   fit-margin-top="0"
   fit-margin-left="0"
   fit-margin-right="0"
   fit-margin-bottom="0"
   inkscape:zoom="1.537639"
   inkscape:cx="134.2968"
   inkscape:cy="196.73018"
   inkscape:window-width="1920"
   inkscape:window-height="1017"
   inkscape:window-x="-8"
   inkscape:window-y="-8"
   inkscape:window-maximized="1"
   inkscape:current-layer="Capa_1" />
<g
   id="g4372"
   transform="translate(0,-37.183935)">
	<g
   id="g4370">
		<path
   d="m 209.3,219.916 c 4.3,-3.7 10.4,-6.1 18.4,-6.7 v 45.899 c -9.8,-3.1 -16.5,-6.699 -20.2,-9.8 -3.7,-3.7 -5.5,-8 -5.5,-14.1 0.6,-6.099 3,-10.999 7.3,-15.299 z m 179.3,-147.5 c -8,-29.4 -31.199,-40.4 -58.1,-33 L 93,103.016 h 303.6 z m 79,106.5 v 204.4 c 0,26.3 -20.8,47.101 -47.1,47.101 H 47.1 C 20.8,430.417 0,409.616 0,383.316 v -204.4 c 0,-26.3 20.8,-47.1 47.1,-47.1 h 373.3 c 25.8,-0.001 47.2,21.4 47.2,47.1 z M 304.8,318.415 c 0,-15.301 -4.899,-26.899 -14.7,-35.5 -9.8,-8.601 -24.5,-14.699 -44.699,-19 H 244.8 v -49.601 c 13.5,1.8 26.3,7.3 37.9,15.3 l 17.1,-24.5 c -17.1,-11.6 -35.5,-18.4 -55.1,-19.6 v -13.5 h -17.1 v 0 12.9 c -17.1,0.6 -30.6,6.1 -41.6,15.9 -10.4,9.8 -15.9,22 -15.9,37.3 0,15.3 4.9,26.9 14.1,34.3 9.2,8 23.9,14.102 43.5,19 v 51.4 c -15.9,-2.4 -30.6,-10.4 -45.9,-23.3 l -19.6,23.3 c 19,16.5 41,26.3 64.9,28.8 v 19.602 h 17.1 v -19 c 17.699,-0.602 32.398,-6.102 43.5,-15.9 11.6,-10.3 17.1,-22.6 17.1,-37.901 z m -60,-22.6 v 47.7 c 8.601,-0.601 15.3,-3.101 20.2,-7.3 4.899,-4.301 7.3,-9.2 7.3,-15.301 0,-6.101 -1.8,-11 -5.5,-14.699 -4.2,-3.699 -11,-7.3 -22,-10.4 z"
   id="path4368" />
	</g>
</g>
<g
   id="g4374"
   transform="translate(0,-37.183935)">
</g>
<g
   id="g4376"
   transform="translate(0,-37.183935)">
</g>
<g
   id="g4378"
   transform="translate(0,-37.183935)">
</g>
<g
   id="g4380"
   transform="translate(0,-37.183935)">
</g>
<g
   id="g4382"
   transform="translate(0,-37.183935)">
</g>
<g
   id="g4384"
   transform="translate(0,-37.183935)">
</g>
<g
   id="g4386"
   transform="translate(0,-37.183935)">
</g>
<g
   id="g4388"
   transform="translate(0,-37.183935)">
</g>
<g
   id="g4390"
   transform="translate(0,-37.183935)">
</g>
<g
   id="g4392"
   transform="translate(0,-37.183935)">
</g>
<g
   id="g4394"
   transform="translate(0,-37.183935)">
</g>
<g
   id="g4396"
   transform="translate(0,-37.183935)">
</g>
<g
   id="g4398"
   transform="translate(0,-37.183935)">
</g>
<g
   id="g4400"
   transform="translate(0,-37.183935)">
</g>
<g
   id="g4402"
   transform="translate(0,-37.183935)">
</g>
</svg>
