<?xml version="1.0" encoding="UTF-8" standalone="no"?>
<!-- Generator: Adobe Illustrator 16.0.0, SVG Export Plug-In . SVG Version: 6.00 Build 0)  -->

<svg
   version="1.1"
   id="Capa_1"
   x="0px"
   y="0px"
   width="396.50739"
   height="333.44699"
   viewBox="0 0 396.5074 333.447"
   xml:space="preserve"
   sodipodi:docname="config2.svg"
   inkscape:version="1.1.1 (3bf5ae0d25, 2021-09-20)"
   xmlns:inkscape="http://www.inkscape.org/namespaces/inkscape"
   xmlns:sodipodi="http://sodipodi.sourceforge.net/DTD/sodipodi-0.dtd"
   xmlns="http://www.w3.org/2000/svg"
   xmlns:svg="http://www.w3.org/2000/svg"><defs
   id="defs4944" /><sodipodi:namedview
   id="namedview4942"
   pagecolor="#ffffff"
   bordercolor="#666666"
   borderopacity="1.0"
   inkscape:pageshadow="2"
   inkscape:pageopacity="0.0"
   inkscape:pagecheckerboard="0"
   showgrid="false"
   height="340.27399px"
   fit-margin-top="0"
   fit-margin-left="0"
   fit-margin-right="0"
   fit-margin-bottom="0"
   inkscape:zoom="2.1130031"
   inkscape:cx="164.45787"
   inkscape:cy="166.82417"
   inkscape:window-width="1920"
   inkscape:window-height="1017"
   inkscape:window-x="-8"
   inkscape:window-y="-8"
   inkscape:window-maximized="1"
   inkscape:current-layer="Capa_1" />
<g
   id="g4909"
   transform="translate(28.117193,-3.414)">
	<g
   id="g4907">
		<g
   id="g4905">
			<path
   d="m 293.629,127.806 -5.795,-13.739 c 19.846,-44.856 18.53,-46.189 14.676,-50.08 l -25.353,-24.77 -2.516,-2.12 h -2.937 c -1.549,0 -6.173,0 -44.712,17.48 L 212.808,48.858 C 194.476,3.414 192.596,3.414 187.228,3.414 h -35.765 c -5.362,0 -7.446,-0.006 -24.448,45.606 l -14.123,5.734 C 86.848,43.757 71.574,38.19 67.452,38.19 l -3.381,0.105 -27.27,26.737 c -4.138,3.891 -5.582,5.263 15.402,49.425 l -5.774,13.691 C 0,146.097 0,147.838 0,153.33 v 35.068 c 0,5.501 0,7.44 46.585,24.127 l 5.773,13.667 c -19.843,44.832 -18.51,46.178 -14.655,50.032 l 25.353,24.8 2.522,2.168 h 2.951 c 1.525,0 6.092,0 44.685,-17.516 l 14.159,5.758 c 18.335,45.438 20.218,45.427 25.598,45.427 h 35.771 c 5.47,0 7.41,0 24.463,-45.589 l 14.195,-5.74 c 26.014,11 41.253,16.585 45.349,16.585 l 3.404,-0.096 27.479,-26.901 c 3.909,-3.945 5.278,-5.309 -15.589,-49.288 l 5.734,-13.702 c 46.496,-17.967 46.496,-19.853 46.496,-25.221 V 151.88 c -0.005,-5.519 -0.005,-7.446 -46.644,-24.074 z M 170.128,228.474 c -32.798,0 -59.504,-26.187 -59.504,-58.364 0,-32.153 26.707,-58.315 59.504,-58.315 32.78,0 59.43,26.168 59.43,58.315 -0.006,32.177 -26.656,58.364 -59.43,58.364 z"
   id="path4903" />
		</g>
	</g>
</g>
<g
   id="g4911"
   transform="translate(0,-3.414)">
</g>
<g
   id="g4913"
   transform="translate(0,-3.414)">
</g>
<g
   id="g4915"
   transform="translate(0,-3.414)">
</g>
<g
   id="g4917"
   transform="translate(0,-3.414)">
</g>
<g
   id="g4919"
   transform="translate(0,-3.414)">
</g>
<g
   id="g4921"
   transform="translate(0,-3.414)">
</g>
<g
   id="g4923"
   transform="translate(0,-3.414)">
</g>
<g
   id="g4925"
   transform="translate(0,-3.414)">
</g>
<g
   id="g4927"
   transform="translate(0,-3.414)">
</g>
<g
   id="g4929"
   transform="translate(0,-3.414)">
</g>
<g
   id="g4931"
   transform="translate(0,-3.414)">
</g>
<g
   id="g4933"
   transform="translate(0,-3.414)">
</g>
<g
   id="g4935"
   transform="translate(0,-3.414)">
</g>
<g
   id="g4937"
   transform="translate(0,-3.414)">
</g>
<g
   id="g4939"
   transform="translate(0,-3.414)">
</g>
</svg>
