<?xml version="1.0" encoding="UTF-8" standalone="no"?>
<svg
   width="21.47842"
   height="18.0625"
   viewBox="0 0 21.47842 18.0625"
   fill="none"
   version="1.1"
   id="svg6"
   sodipodi:docname="trash6.svg"
   inkscape:version="1.1.1 (3bf5ae0d25, 2021-09-20)"
   xmlns:inkscape="http://www.inkscape.org/namespaces/inkscape"
   xmlns:sodipodi="http://sodipodi.sourceforge.net/DTD/sodipodi-0.dtd"
   xmlns="http://www.w3.org/2000/svg"
   xmlns:svg="http://www.w3.org/2000/svg">
  <defs
     id="defs10">
    <inkscape:path-effect
       effect="slice"
       start_point="8.0227628,4.6851435"
       end_point="8.0227628,18.531333"
       center_point="8.0227628,11.608238"
       id="path-effect3861"
       is_visible="true"
       lpeversion="1"
       allow_transforms="true" />
    <inkscape:path-effect
       effect="offset"
       id="path-effect3859"
       is_visible="false"
       lpeversion="1"
       linejoin_type="miter"
       unit="px"
       offset="-20"
       miter_limit="4"
       attempt_force_join="false"
       update_on_knot_move="true" />
  </defs>
  <sodipodi:namedview
     id="namedview8"
     pagecolor="#ffffff"
     bordercolor="#666666"
     borderopacity="1.0"
     inkscape:pageshadow="2"
     inkscape:pageopacity="0.0"
     inkscape:pagecheckerboard="0"
     showgrid="false"
     inkscape:zoom="22.627417"
     inkscape:cx="2.80633"
     inkscape:cy="7.2257474"
     inkscape:window-width="1920"
     inkscape:window-height="1017"
     inkscape:window-x="-8"
     inkscape:window-y="-8"
     inkscape:window-maximized="1"
     inkscape:current-layer="svg6"
     fit-margin-top="0"
     fit-margin-left="0"
     fit-margin-right="0"
     fit-margin-bottom="0"
     scale-x="200" />
  <path
     id="path2"
     style="fill:#000000"
     d="m 3.8453385,4.2167969 v 6.9746091 c 0.1025701,1.333301 0.2040707,3.075841 0.3066407,4.306641 0.10256,1.4359 1.3336312,2.564453 2.7695312,2.564453 h 7.5898436 c 1.4359,0 2.666931,-1.128553 2.769531,-2.564453 0.1025,-1.230799 0.204041,-2.97334 0.306641,-4.306641 0.1025,-1.5385 0,-4.7182191 0,-6.9746091 z m 1.5,0.6054687 H 16.253541 c 0,1.98457 0.08136,4.7816044 0,6.1347654 -0.08144,1.172683 -0.16278,2.704582 -0.24414,3.78711 C 15.927961,16.007062 14.951909,17 13.812135,17 H 7.7867448 C 6.6469711,17 5.6708882,16.007062 5.5894792,14.744141 5.5080622,13.661611 5.4267557,12.129714 5.3453385,10.957031 Z" />
  <path
     d="m 17.91871,2.60817 h -2.5641 L 14.53411,1.06971 C 14.02131,0.14664 13.09821,0 12.07251,0 H 9.6110101 c -1.02565,0 -2.05129,0.14664 -2.46154,1.06971 l -1.02564,1.53846 h -2.56411 c -0.41025,0 -0.82051,0.41026 -0.82051,0.82052 0,0.41025 0.41026,1.3879648 0.82051,1.3879648 H 17.91871 c 0.4102,0 0.8205,-0.8751448 0.8205,-1.3879648 0,-0.51282 -0.4103,-0.82052 -0.8205,-0.82052 z"
     fill="#030d45"
     id="path4"
     style="fill:#000000;stroke:none;stroke-width:1.6;stroke-miterlimit:4;stroke-dasharray:none;stroke-opacity:1"
     sodipodi:nodetypes="sccssccssssss" />
</svg>
