<?xml version="1.0" encoding="UTF-8" standalone="no"?>
<!-- Generator: Adobe Illustrator 18.0.0, SVG Export Plug-In . SVG Version: 6.00 Build 0)  -->

<svg
   xmlns:dc="http://purl.org/dc/elements/1.1/"
   xmlns:cc="http://creativecommons.org/ns#"
   xmlns:rdf="http://www.w3.org/1999/02/22-rdf-syntax-ns#"
   xmlns:svg="http://www.w3.org/2000/svg"
   xmlns="http://www.w3.org/2000/svg"
   xmlns:sodipodi="http://sodipodi.sourceforge.net/DTD/sodipodi-0.dtd"
   xmlns:inkscape="http://www.inkscape.org/namespaces/inkscape"
   version="1.1"
   id="Capa_1"
   x="0px"
   y="0px"
   viewBox="0 0 382.55399 255.036"
   xml:space="preserve"
   sodipodi:docname="bug_space.svg"
   width="382.55399"
   height="255.036"
   inkscape:version="0.92.4 (5da689c313, 2019-01-14)"><metadata
   id="metadata39"><rdf:RDF><cc:Work
       rdf:about=""><dc:format>image/svg+xml</dc:format><dc:type
         rdf:resource="http://purl.org/dc/dcmitype/StillImage" /><dc:title></dc:title></cc:Work></rdf:RDF></metadata><defs
   id="defs37" /><sodipodi:namedview
   pagecolor="#ffffff"
   bordercolor="#666666"
   borderopacity="1"
   objecttolerance="10"
   gridtolerance="10"
   guidetolerance="10"
   inkscape:pageopacity="0"
   inkscape:pageshadow="2"
   inkscape:window-width="640"
   inkscape:window-height="480"
   id="namedview35"
   showgrid="false"
   inkscape:zoom="0.92535957"
   inkscape:cx="108.60643"
   inkscape:cy="127.518"
   inkscape:window-x="0"
   inkscape:window-y="0"
   inkscape:window-maximized="0"
   inkscape:current-layer="Capa_1" />
<path
   d="m 237.117,152.137 -34.441,-13.32 v -11.513 c 20.07,-16.766 31.109,-39.06799 31.109,-62.96799 0,-8.284 -6.716,-15 -15,-15 -8.284,0 -15,6.716 -15,15 0,7.719 -1.949,15.088 -5.454,21.85 -3.899,-7.652 -10.185,-13.879 -17.883,-17.699 -0.682,-9.476 -5.284,-21.241 -12.532,-31.624 3.339,-7.355 5.343,-15.617 5.343,-24.362 0,-6.903001 -5.597,-12.50000096 -12.5,-12.50000096 -6.903,0 -12.5,5.59699996 -12.5,12.50000096 0,1.72 -0.139,3.394 -0.39,5.017 -6.267,-3.747 -13.14,-6.023 -20.351,-6.023 -7.212,0 -14.085,2.276 -20.353,6.023 -0.251,-1.623 -0.39,-3.298 -0.39,-5.018 C 106.775,5.597009 101.178,9.0332032e-6 94.275,9.0332032e-6 87.372,9.0332032e-6 81.775,5.597009 81.775,12.50001 c 0,8.745 2.004,17.007 5.343,24.363 -7.247,10.383 -11.85,22.148 -12.532,31.624 -7.698,3.82 -13.984,10.047 -17.883,17.699 -3.505,-6.762 -5.454,-14.132 -5.454,-21.851 0,-8.284 -6.716,-15 -15,-15 -8.284,0 -15,6.716 -15,15 0,23.9 11.038,46.20199 31.109,62.96799 v 11.514 l -34.441,13.32 c -7.727,2.988 -11.567,11.675 -8.579,19.401 2.301,5.948 7.977,9.593 13.993,9.593 1.8,0 3.63,-0.326 5.408,-1.014 l 23.933,-9.256 c 0.756,8.531 2.939,16.646 6.306,24.118 -6.747,13.264 -10.614,28.656 -10.614,45.057 0,8.284 6.716,15 15,15 8.284,0 15,-6.716 15,-15 0,-6.018 0.734,-11.828 2.084,-17.314 12.883,10.365 29.246,16.581 47.068,16.581 17.822,0 34.184,-6.216 47.067,-16.581 1.35,5.486 2.084,11.296 2.084,17.314 0,8.284 6.716,15 15,15 8.284,0 15,-6.716 15,-15 0,-16.402 -3.867,-31.793 -10.614,-45.057 3.367,-7.472 5.55,-15.587 6.306,-24.118 l 23.933,9.256 c 1.779,0.688 3.608,1.014 5.408,1.014 6.016,0 11.692,-3.645 13.993,-9.593 2.992,-7.727 -0.849,-16.413 -8.576,-19.401 z"
   id="path2"
   inkscape:connector-curvature="0" />
<g
   id="g4"
   transform="translate(0,9.0332032e-6)">
</g>
<g
   id="g6"
   transform="translate(0,9.0332032e-6)">
</g>
<g
   id="g8"
   transform="translate(0,9.0332032e-6)">
</g>
<g
   id="g10"
   transform="translate(0,9.0332032e-6)">
</g>
<g
   id="g12"
   transform="translate(0,9.0332032e-6)">
</g>
<g
   id="g14"
   transform="translate(0,9.0332032e-6)">
</g>
<g
   id="g16"
   transform="translate(0,9.0332032e-6)">
</g>
<g
   id="g18"
   transform="translate(0,9.0332032e-6)">
</g>
<g
   id="g20"
   transform="translate(0,9.0332032e-6)">
</g>
<g
   id="g22"
   transform="translate(0,9.0332032e-6)">
</g>
<g
   id="g24"
   transform="translate(0,9.0332032e-6)">
</g>
<g
   id="g26"
   transform="translate(0,9.0332032e-6)">
</g>
<g
   id="g28"
   transform="translate(0,9.0332032e-6)">
</g>
<g
   id="g30"
   transform="translate(0,9.0332032e-6)">
</g>
<g
   id="g32"
   transform="translate(0,9.0332032e-6)">
</g>
</svg>