<?xml version="1.0" encoding="UTF-8" standalone="no"?>
<!-- Generator: Adobe Illustrator 18.0.0, SVG Export Plug-In . SVG Version: 6.00 Build 0)  -->

<svg
   xmlns:dc="http://purl.org/dc/elements/1.1/"
   xmlns:cc="http://creativecommons.org/ns#"
   xmlns:rdf="http://www.w3.org/1999/02/22-rdf-syntax-ns#"
   xmlns:svg="http://www.w3.org/2000/svg"
   xmlns="http://www.w3.org/2000/svg"
   xmlns:sodipodi="http://sodipodi.sourceforge.net/DTD/sodipodi-0.dtd"
   xmlns:inkscape="http://www.inkscape.org/namespaces/inkscape"
   version="1.1"
   id="Capa_1"
   x="0px"
   y="0px"
   viewBox="0 0 714.99597 476.664"
   xml:space="preserve"
   sodipodi:docname="folder_space.svg"
   width="714.99597"
   height="476.664"
   inkscape:version="0.92.4 (5da689c313, 2019-01-14)"><metadata
   id="metadata43"><rdf:RDF><cc:Work
       rdf:about=""><dc:format>image/svg+xml</dc:format><dc:type
         rdf:resource="http://purl.org/dc/dcmitype/StillImage" /><dc:title></dc:title></cc:Work></rdf:RDF></metadata><defs
   id="defs41" /><sodipodi:namedview
   pagecolor="#ffffff"
   bordercolor="#666666"
   borderopacity="1"
   objecttolerance="10"
   gridtolerance="10"
   guidetolerance="10"
   inkscape:pageopacity="0"
   inkscape:pageshadow="2"
   inkscape:window-width="640"
   inkscape:window-height="480"
   id="namedview39"
   showgrid="false"
   inkscape:zoom="0.49510766"
   inkscape:cx="202.98615"
   inkscape:cy="238.332"
   inkscape:window-x="0"
   inkscape:window-y="0"
   inkscape:window-maximized="0"
   inkscape:current-layer="Capa_1" />
<g
   id="g6">
	<path
   d="m 454.571,138.49 c 2.452,0 4.847,0.418 7.249,0.749 v -35.784 c 0,-12.205 -9.888,-22.096 -22.087,-22.096 H 222.557 c -18.598,0 -33.681,-15.082 -33.681,-33.679 v -2.522 c 0,-12.206 -9.888,-22.096 -22.095,-22.096 H 36.931 c -12.2,0 -22.087,9.89 -22.087,22.096 v 94.081 c 2.402,-0.331 4.798,-0.749 7.249,-0.749 z"
   id="path2"
   inkscape:connector-curvature="0" />
	<path
   d="m 470.631,177.686 c -4.175,-4.413 -9.983,-6.919 -16.06,-6.919 H 22.093 c -6.076,0 -11.884,2.506 -16.059,6.919 -4.177,4.42 -6.345,10.362 -5.998,16.431 l 13.616,238.65 c 0.67,11.694 10.347,20.835 22.057,20.835 h 405.246 c 11.71,0 21.387,-9.141 22.057,-20.835 l 13.616,-238.65 c 0.347,-6.069 -1.82,-12.011 -5.997,-16.431 z"
   id="path4"
   inkscape:connector-curvature="0" />
</g>
<g
   id="g8">
</g>
<g
   id="g10">
</g>
<g
   id="g12">
</g>
<g
   id="g14">
</g>
<g
   id="g16">
</g>
<g
   id="g18">
</g>
<g
   id="g20">
</g>
<g
   id="g22">
</g>
<g
   id="g24">
</g>
<g
   id="g26">
</g>
<g
   id="g28">
</g>
<g
   id="g30">
</g>
<g
   id="g32">
</g>
<g
   id="g34">
</g>
<g
   id="g36">
</g>
</svg>